<svg xmlns="http://www.w3.org/2000/svg" version="1.0" width="256" height="252" viewBox="0 0 905.000000 890.000000" preserveAspectRatio="xMidYMid meet">
    <g xmlns="http://www.w3.org/2000/svg" transform="translate(0.000000,890.000000) scale(0.100000,-0.100000)" fill="currentColor">
        <path d="M4269 8875 c-356 -72 -580 -293 -628 -622 -15 -102 -14 -197 2 -190 184 76 311 112 438 125 l73 7 12 41 c18 62 39 97 82 136 56 51 100 63 222 63 97 0 110 -2 165 -30 70 -35 117 -97 134 -175 13 -61 16 -1251 2 -1295 -41 -142 -135 -205 -306 -205 -111 0 -171 19 -226 73 -79 79 -82 97 -87 456 l-4 314 -51 51 c-38 38 -66 56 -102 67 -75 21 -185 15 -282 -16 l-83 -26 0 -337 c0 -343 6 -418 41 -531 33 -108 78 -180 169 -271 134 -135 274 -197 498 -221 209 -22 395 6 565 84 138 64 250 173 317 311 77 158 74 122 78 868 3 720 2 736 -51 868 -99 243 -288 392 -572 451 -106 22 -304 24 -406 4z"/>
        <path d="M0 7585 l0 -1275 260 0 260 0 2 503 3 502 513 3 512 2 0 240 0 240 -518 2 -517 3 -3 283 -2 282 565 0 565 0 0 245 0 245 -820 0 -820 0 0 -1275z"/>
        <path d="M1820 7585 l0 -1276 146 3 146 3 37 100 c49 130 83 210 137 317 l44 88 0 225 0 225 125 0 c124 0 126 0 137 -25 l11 -25 36 43 c208 248 533 530 784 681 l97 58 0 87 c0 220 -64 375 -215 526 -75 75 -105 98 -185 137 -190 94 -308 108 -892 108 l-408 0 0 -1275z m878 815 c96 -13 163 -43 213 -97 56 -61 80 -120 86 -214 12 -169 -63 -289 -212 -338 -58 -18 -88 -21 -260 -21 l-195 0 0 333 c0 184 3 337 7 340 10 10 277 8 361 -3z"/>
        <path d="M5460 8073 c0 -434 3 -1007 7 -1275 l6 -488 224 0 223 0 0 623 c0 589 -10 917 -39 1242 -4 50 -7 91 -5 93 2 4 612 -1834 635 -1915 l12 -43 308 0 308 0 -2 1273 -2 1272 -227 3 -228 2 0 -612 c0 -595 9 -871 41 -1216 6 -68 9 -125 7 -128 -3 -2 -151 436 -329 974 l-325 977 -307 3 -307 2 0 -787z"/>
        <path d="M7227 8853 c-4 -3 -7 -114 -7 -245 l0 -238 325 0 325 0 0 -237 0 -238 260 0 260 0 0 238 0 237 325 0 325 0 0 245 0 245 -903 0 c-497 0 -907 -3 -910 -7z"/>
        <path d="M7870 7284 l0 -366 44 60 c25 33 93 102 153 154 225 194 279 254 304 336 36 121 -97 182 -398 182 l-103 0 0 -366z"/>
        <path d="M2999 7163 c-56 -60 -135 -150 -174 -201 l-72 -94 94 -221 c52 -122 105 -247 118 -277 l23 -55 286 -3 285 -2 -78 167 c-42 93 -142 309 -221 481 -79 171 -147 312 -151 312 -4 0 -53 -48 -110 -107z"/>
        <path d="M7870 6528 l0 -218 260 0 260 0 0 208 0 209 -112 -38 c-152 -51 -237 -59 -307 -29 -28 13 -63 37 -76 54 l-25 31 0 -217z"/>
        <path d="M40 4495 l0 -1275 780 0 780 0 0 225 0 225 -525 0 -525 0 0 315 0 315 465 0 465 0 0 225 0 225 -465 0 -465 0 0 285 0 285 525 0 525 0 0 225 0 225 -780 0 -780 0 0 -1275z"/>
        <path d="M1800 4495 l0 -1275 230 0 230 0 0 563 c0 508 -14 985 -36 1192 -6 56 -9 62 -45 88 -108 76 -167 257 -176 545 l-6 162 -98 0 -99 0 0 -1275z"/>
        <path d="M2373 5658 c5 -123 16 -162 88 -320 35 -77 42 -104 43 -158 2 -118 -41 -162 -160 -168 -50 -3 -74 -8 -71 -16 2 -6 116 -350 253 -763 137 -414 252 -753 255 -753 3 0 41 41 85 92 116 135 373 396 497 506 l107 95 0 798 0 799 -231 0 -231 0 5 -692 c4 -586 8 -731 25 -943 12 -137 23 -268 26 -290 3 -23 1 -33 -3 -25 -5 8 -154 450 -332 982 -276 823 -327 968 -343 968 -17 0 -18 -7 -13 -112z"/>
        <path d="M3640 5046 l0 -727 44 30 c83 58 232 134 351 180 l120 47 3 353 2 352 213 -3 c247 -4 277 -12 359 -99 74 -79 88 -128 88 -318 l0 -159 34 -6 c18 -4 42 -16 52 -27 39 -43 12 -155 -55 -231 l-31 -36 0 -215 c0 -192 -2 -222 -20 -270 -29 -76 -79 -130 -158 -169 l-66 -33 -208 -3 -208 -3 0 216 c0 191 -2 216 -15 211 -9 -3 -41 -13 -73 -22 -131 -38 -341 -136 -399 -187 l-33 -29 0 -340 0 -339 503 3 c472 4 506 5 577 25 170 48 265 97 377 197 114 103 200 262 234 431 20 101 20 1138 0 1240 -56 284 -245 505 -506 590 -147 47 -210 53 -712 61 l-473 7 0 -727z"/>
        <path d="M3331 3597 c-125 -138 -311 -359 -311 -371 0 -3 101 -6 225 -6 l225 0 0 260 c0 143 -2 260 -4 260 -3 0 -63 -64 -135 -143z"/>
        <path d="M680 2765 c-331 -66 -547 -259 -620 -551 -20 -78 -21 -107 -18 -765 l3 -684 27 -80 c40 -118 92 -200 185 -292 67 -66 100 -91 175 -128 110 -53 220 -83 341 -92 l87 -6 51 -84 50 -83 270 0 c214 0 269 3 263 13 -4 6 -41 65 -81 130 -40 65 -73 122 -73 125 0 4 23 21 52 37 67 39 164 137 207 209 38 64 78 168 92 240 14 74 22 1256 9 1359 -23 184 -82 309 -205 433 -116 116 -248 183 -435 218 -99 19 -288 19 -380 1z m349 -465 c67 -29 123 -97 142 -172 20 -75 20 -1252 1 -1315 -43 -142 -194 -215 -383 -183 -91 15 -151 56 -193 130 l-31 55 -3 634 c-3 725 -5 707 75 792 35 38 60 54 107 69 84 27 209 23 285 -10z"/>
        <path d="M1872 1968 l3 -783 36 -75 c41 -85 95 -147 160 -181 35 -19 60 -24 125 -24 77 0 83 2 137 38 l57 37 0 879 0 878 -112 6 c-62 4 -179 7 -261 7 l-147 0 2 -782z"/>
        <path d="M3018 1799 l-3 -954 -26 -55 c-32 -69 -79 -117 -144 -146 -27 -12 -86 -50 -130 -84 -97 -73 -256 -154 -345 -175 -36 -8 -112 -15 -169 -15 l-104 0 44 -35 c61 -50 188 -109 289 -137 74 -20 108 -23 275 -23 165 0 201 3 271 22 161 45 269 107 371 216 76 82 123 165 160 282 l28 90 3 969 c1 533 -1 973 -5 977 -4 4 -122 10 -260 14 l-253 7 -2 -953z"/>
        <path d="M3971 2609 c-30 -79 -68 -181 -86 -226 l-33 -83 211 -2 212 -3 0 -820 0 -820 -252 -3 -253 -2 0 -225 0 -225 765 0 765 0 0 225 0 225 -250 0 -250 0 0 825 0 825 250 0 250 0 0 220 0 220 -293 0 c-162 0 -449 3 -639 7 l-344 6 -53 -144z"/>
        <path d="M5617 2573 c-4 -91 -7 -199 -7 -239 l0 -74 453 -2 454 -3 -468 -785 -468 -785 0 -242 -1 -243 785 0 785 0 0 245 0 245 -485 2 -485 3 465 779 465 778 0 244 0 244 -743 0 -744 0 -6 -167z"/>
    </g>
    <g xmlns="http://www.w3.org/2000/svg" transform="translate(0.000000,890.000000) scale(0.100000,-0.100000)" fill="#ffd300">
        <path d="M4005 8174 c-402 -71 -918 -407 -1309 -854 -247 -282 -385 -507 -519 -845 -139 -353 -192 -645 -168 -933 19 -227 58 -355 138 -443 90 -99 243 -118 318 -39 25 27 30 40 33 99 3 57 0 78 -23 132 -86 203 -96 233 -107 314 -41 308 125 889 348 1217 290 425 719 787 1028 867 185 48 315 12 399 -110 81 -118 115 -282 124 -597 l6 -212 69 -21 c75 -23 184 -23 262 1 64 19 130 89 155 165 20 63 21 84 21 476 l0 410 -24 47 c-61 120 -164 226 -276 282 -116 58 -299 75 -475 44z"/>
        <path d="M8015 7894 c-338 -16 -516 -30 -782 -65 l-93 -12 0 -138 0 -138 68 20 c229 67 367 83 717 84 280 0 292 -1 347 -23 95 -38 128 -99 97 -179 -20 -54 -94 -136 -223 -247 -218 -188 -286 -275 -286 -365 0 -158 145 -219 366 -156 177 51 447 203 578 326 155 144 246 362 216 519 -29 153 -140 250 -361 313 -154 45 -428 71 -644 61z"/>
        <path d="M6565 7690 c-49 -15 -89 -31 -89 -36 5 -35 118 -354 125 -354 5 0 28 12 51 26 l41 26 -7 97 c-3 53 -6 135 -6 184 0 63 -3 87 -12 86 -7 -1 -53 -14 -103 -29z"/>
        <path d="M6015 7472 l-90 -48 -3 -557 -2 -557 -230 0 -230 0 -1 318 -1 317 -28 -60 c-51 -111 -65 -185 -65 -350 0 -177 17 -271 76 -422 147 -377 470 -716 1154 -1213 609 -443 749 -554 905 -716 188 -197 260 -351 247 -531 -15 -202 -197 -388 -513 -527 -374 -164 -949 -273 -1579 -301 -153 -7 -304 5 -477 35 -241 43 -318 52 -453 54 -113 1 -146 -2 -170 -15 -47 -26 -67 -55 -72 -104 l-6 -45 412 0 411 0 0 -109 0 -108 68 -6 c37 -4 106 -7 155 -7 l87 0 0 115 0 115 748 0 c511 0 751 -3 759 -11 7 -7 44 1 122 26 710 230 1086 605 1084 1080 -2 290 -121 549 -395 855 -156 174 -352 341 -999 850 -512 403 -725 646 -799 912 -49 178 -6 374 116 525 19 23 34 47 34 54 0 28 -155 479 -165 479 -5 0 -50 -22 -100 -48z"/>
        <path d="M4870 6353 c-118 -52 -202 -67 -380 -68 -91 0 -186 3 -211 7 l-47 7 -7 -67 c-8 -74 -62 -417 -71 -444 -5 -17 7 -18 153 -18 204 0 363 -15 462 -44 l79 -23 15 101 c31 195 72 566 64 572 -1 1 -27 -9 -57 -23z"/>
        <path d="M4169 4951 c2 -182 1 -341 -3 -354 -4 -19 -25 -31 -108 -62 -95 -35 -262 -119 -355 -178 -81 -52 -306 -250 -497 -437 -279 -274 -485 -508 -701 -795 -125 -167 -255 -354 -255 -367 0 -4 32 -8 70 -8 l70 0 0 -242 0 -243 42 75 c314 572 676 1055 1089 1453 139 135 173 162 248 200 130 67 341 147 385 147 14 0 16 -27 16 -215 l0 -216 72 3 72 3 51 205 c28 113 54 217 58 232 6 22 27 36 121 81 135 65 189 101 270 176 88 83 129 190 96 251 -23 42 -154 49 -269 14 -25 -7 -46 -12 -47 -11 -1 1 26 102 62 224 35 122 66 239 70 260 6 37 4 40 -34 67 -78 54 -111 60 -327 64 l-200 3 4 -330z"/>
        <path d="M3552 3505 c-45 -132 -82 -250 -82 -262 0 -12 -4 -23 -9 -25 -6 -1 -48 -106 -94 -233 l-84 -230 126 -5 126 -5 5 -554 5 -555 92 190 c167 345 298 675 449 1132 46 139 84 255 84 257 0 3 -119 5 -265 5 l-265 0 -2 263 -3 262 -83 -240z"/>
        <path d="M2971 1995 c-71 -161 -213 -452 -276 -565 -141 -254 -300 -461 -388 -506 -149 -76 -304 -7 -397 178 l-40 80 0 427 c0 283 -4 421 -10 411 -20 -31 -103 -299 -127 -410 -19 -90 -25 -158 -30 -310 -12 -418 38 -658 166 -793 154 -163 404 -182 668 -52 120 59 223 137 359 271 l112 109 6 65 c4 36 6 319 4 630 l-3 565 -44 -100z"/>
    </g>
</svg>